<?xml version="1.0" encoding="UTF-8"?><svg xmlns="http://www.w3.org/2000/svg" xmlns:xlink="http://www.w3.org/1999/xlink" contentScriptType="text/ecmascript" width="375" zoomAndPan="magnify" contentStyleType="text/css" viewBox="0 0 375 599.999999" height="599.999999" preserveAspectRatio="xMidYMid meet" version="1.0"><path fill="rgb(0%, 0%, 0%)" d="M 368.488281 188.691406 L 370.703125 184.429688 C 372.078125 181.789062 371.039062 178.535156 368.398438 177.164062 L 364.738281 175.265625 C 364.066406 172.714844 359.398438 154.972656 356.886719 147.96875 C 354.902344 142.441406 338.578125 136.34375 327.78125 132.300781 C 323.886719 130.84375 319.859375 129.339844 319.378906 128.859375 C 317.832031 126.976562 313.25 126.597656 311.863281 126.523438 L 307.3125 120.351562 L 305.824219 120.949219 L 309.5 96.832031 L 308.785156 96.730469 C 317.800781 93.609375 321.84375 81.441406 318.210938 76.933594 C 318.296875 77.050781 318.414062 77.152344 318.488281 77.269531 C 318.488281 77.269531 320.808594 72.441406 323.667969 62.023438 C 326.527344 51.636719 311.746094 44.5 311.675781 44.472656 C 311.734375 44.355469 316.765625 32.902344 307.675781 28.480469 C 298.542969 24.0625 269.859375 27.199219 260.582031 35.484375 C 251.300781 43.757812 240.167969 62.023438 242.023438 64.738281 C 243.699219 67.203125 249.113281 75.210938 253.652344 78.421875 C 254.074219 78.1875 254.480469 77.953125 254.890625 77.722656 C 254.992188 79.398438 255.09375 81.179688 255.210938 82.988281 C 255.082031 83.425781 254.976562 83.863281 254.933594 84.316406 C 255.066406 84.449219 255.195312 84.578125 255.328125 84.710938 C 255.898438 93.085938 256.683594 101.78125 257.605469 104.15625 L 256.917969 104.421875 C 258.785156 109.277344 266.140625 121.765625 272.371094 122.394531 C 272.617188 122.425781 272.867188 122.425781 273.113281 122.453125 L 273.113281 122.804688 L 269.21875 122.804688 L 260.375 130.449219 C 256.234375 131.644531 225.683594 140.574219 222.269531 143.695312 C 218.839844 146.832031 216.929688 171.226562 216.636719 175.382812 C 215.25 176.464844 209.71875 181.453125 214.285156 188.746094 C 213.675781 192.292969 207.457031 228.167969 207.183594 240.378906 C 206.917969 252.316406 207.152344 275.015625 207.183594 278.066406 C 205.679688 279.378906 198.703125 285.871094 201.273438 290.730469 C 202.511719 293.0625 202.394531 296.636719 202.28125 300.109375 C 202.175781 303.539062 202.074219 306.777344 203.285156 308.761719 C 203.871094 309.710938 204.992188 310.527344 206.363281 311.210938 C 205.488281 313.984375 202.324219 325.363281 208.21875 327.609375 C 208.757812 327.816406 209.328125 328.003906 209.894531 328.164062 C 209.371094 330.585938 208 338.726562 211.75 344.097656 C 213.542969 346.664062 216.242188 348.195312 219.773438 348.679688 C 218.796875 360.191406 218.300781 371.21875 218.882812 379.492188 L 218.925781 380.175781 L 223.945312 380.175781 C 224.195312 382.746094 225.566406 391.398438 232.566406 393.890625 L 231.867188 393.832031 L 230.613281 409.675781 L 231.34375 409.734375 L 226.894531 409.605469 C 223.230469 409.488281 220.066406 412.128906 219.523438 415.761719 C 217.292969 430.847656 213.019531 468.285156 223.902344 477.707031 L 223.15625 477.648438 L 221.992188 494.265625 L 222.734375 494.324219 C 219.203125 494.835938 215.308594 496.28125 211.105469 499.183594 L 210.375 499.054688 C 210.347656 499.257812 206.875 519.550781 205.460938 527.167969 C 204.03125 534.855469 204.046875 546.601562 204.046875 546.71875 L 204.773438 546.71875 C 204.773438 546.71875 209.035156 555.28125 228.730469 557.28125 C 248.355469 559.265625 253.519531 546.527344 253.5625 546.425781 L 254.292969 546.351562 C 254.234375 545.726562 252.773438 531.046875 245.699219 520.179688 C 245.523438 518.808594 244.269531 509.25 242.914062 501.417969 L 242.183594 501.546875 C 242.152344 501.519531 237.804688 496.398438 230.539062 494.648438 L 231.285156 494.71875 L 232.671875 479.3125 L 231.910156 479.242188 C 243.773438 474.046875 247.363281 434.449219 248.355469 417.703125 C 248.601562 413.632812 245.4375 410.160156 241.351562 410.027344 L 239.441406 409.96875 L 241.148438 394.34375 L 240.386719 394.257812 C 249.214844 392.8125 251.8125 386.085938 253.375 380.148438 L 262.945312 380.148438 L 281.648438 318.347656 C 281.691406 318.347656 281.722656 318.347656 281.765625 318.347656 C 282.261719 318.347656 282.785156 318.316406 283.296875 318.316406 C 284.054688 325.832031 290.796875 392.636719 293.21875 403.402344 L 292.503906 403.5625 C 295.027344 414.785156 298.734375 499.34375 298.761719 500.207031 L 298.777344 500.671875 L 299.214844 500.847656 C 299.273438 500.875 301.082031 501.5625 304.175781 502.234375 C 302.746094 510.59375 301.492188 520.425781 301.492188 520.425781 L 300.878906 520.019531 C 293.730469 530.886719 292.253906 545.695312 292.195312 546.324219 L 292.183594 546.496094 L 292.242188 546.660156 C 292.285156 546.773438 297.054688 558.167969 313.761719 558.167969 C 315.042969 558.167969 316.402344 558.097656 317.832031 557.949219 C 337.703125 555.9375 342.183594 547.359375 342.355469 546.992188 L 342.429688 546.847656 L 342.429688 546.671875 C 342.429688 546.554688 342.445312 534.8125 341.015625 527.125 L 340.300781 527.253906 C 339.03125 520.398438 336.125 503.488281 335.5 499.839844 C 336.140625 499.605469 336.785156 499.375 337.425781 499.097656 L 337.148438 498.410156 C 337.148438 498.292969 340.007812 434.160156 338.871094 399.363281 L 339.597656 399.332031 C 339.089844 383.941406 339.933594 375.886719 340.824219 367.351562 C 341.976562 356.335938 343.160156 344.945312 341.890625 316.886719 C 339.875 272.625 334.914062 256.09375 333.648438 252.519531 C 334.902344 252.082031 335.996094 251.191406 336.667969 249.921875 L 339.816406 243.839844 C 341.816406 245.601562 347.769531 250.167969 355.765625 250.167969 C 356.800781 250.167969 357.867188 250.097656 358.960938 249.921875 C 370.542969 248.140625 374.132812 234.472656 374.425781 226.679688 C 374.761719 219.457031 369.128906 191.8125 368.488281 188.691406 Z M 229.855469 494.5 C 227.914062 494.105469 225.769531 493.960938 223.464844 494.210938 L 224.585938 478.21875 C 225.492188 478.875 226.5 479.371094 227.609375 479.632812 C 228.890625 479.941406 230.085938 479.867188 231.210938 479.515625 Z M 238.738281 409.953125 L 232.070312 409.75 L 233.3125 394.109375 C 234.332031 394.402344 235.472656 394.5625 236.742188 394.5625 C 237.804688 394.5625 238.785156 394.476562 239.71875 394.359375 L 238.023438 409.867188 Z M 362.988281 174.363281 L 345.042969 165.054688 C 347.082031 158.503906 353.300781 150.332031 355.238281 147.898438 C 355.339844 148.085938 355.445312 148.277344 355.515625 148.464844 C 357.734375 154.679688 361.703125 169.488281 362.988281 174.363281 Z M 307.109375 79.210938 L 306.960938 79.210938 C 306.992188 78.421875 307.019531 77.605469 307.050781 76.757812 C 307.019531 77.589844 306.992188 78.394531 306.976562 79.164062 Z M 287.894531 153.078125 C 290.738281 150.40625 291.554688 145.984375 291.714844 142.644531 C 292.300781 144.921875 292.765625 147.648438 293.027344 150.933594 C 291.175781 151.925781 289.46875 152.609375 287.894531 153.078125 Z M 277.984375 153.046875 C 276.105469 152.363281 274.921875 151.441406 274.46875 151.046875 C 274.5 149.503906 274.585938 147.722656 274.746094 145.882812 C 275.316406 148.730469 276.425781 151.355469 277.984375 153.046875 Z M 306.800781 122.132812 L 314.082031 131.996094 C 312.578125 134.589844 303.984375 149.007812 294.675781 155.0625 C 294.503906 145.359375 292.574219 137.902344 289.117188 133.496094 L 287.964844 134.402344 C 288.550781 135.132812 289.148438 136.066406 289.730469 137.230469 C 288.332031 136.898438 286.550781 136.632812 284.710938 136.445312 L 287.894531 129.660156 Z M 317.832031 76.480469 C 317.570312 76.21875 317.277344 76 316.941406 75.808594 C 317.277344 76 317.570312 76.234375 317.832031 76.480469 Z M 254.351562 67.144531 C 254.367188 67.523438 254.421875 68.910156 254.527344 70.964844 C 254.421875 68.894531 254.367188 67.507812 254.351562 67.144531 Z M 269.742188 124.261719 L 273.085938 124.261719 L 273.085938 125.648438 L 278.042969 128.84375 L 279.75 136.078125 C 278.597656 136.019531 277.621094 135.976562 276.9375 135.964844 C 277.214844 135.335938 277.519531 134.738281 277.855469 134.199219 L 276.628906 133.410156 C 272.910156 139.273438 272.878906 150.667969 273.011719 154.84375 C 263.453125 147.183594 261.703125 133.746094 261.457031 131.394531 Z M 208.742188 326.226562 C 204.644531 324.664062 206.421875 315.894531 207.707031 311.796875 C 211.921875 313.546875 217.496094 314.363281 218.371094 314.496094 L 218.578125 313.050781 C 215.25 312.582031 206.261719 310.773438 204.539062 307.972656 C 203.546875 306.367188 203.652344 303.335938 203.753906 300.140625 C 203.871094 296.492188 203.988281 292.714844 202.570312 290.027344 C 200.6875 286.484375 206.132812 280.824219 208.394531 278.941406 L 208.65625 278.722656 L 208.65625 278.371094 C 208.65625 278.125 208.378906 253.117188 208.65625 240.394531 C 208.933594 227.714844 215.714844 189.097656 215.773438 188.703125 L 215.820312 188.425781 L 215.660156 188.179688 C 210.988281 181.015625 217.453125 176.550781 217.730469 176.363281 L 218.023438 176.15625 L 218.050781 175.808594 C 218.839844 164.5 220.882812 146.90625 223.246094 144.746094 C 224.179688 143.886719 227.839844 142.398438 232.625 140.703125 C 232.507812 148.234375 231.957031 208.515625 241.03125 255.523438 L 240.417969 255.128906 C 239.003906 257.320312 226.585938 276.664062 227.769531 281.667969 C 228.820312 286.164062 227.753906 288.597656 227.753906 288.613281 L 227.695312 288.804688 C 227.636719 289.136719 224.527344 307.027344 221.976562 327.945312 C 220.035156 328.035156 213.617188 328.09375 208.742188 326.226562 Z M 335.425781 249.308594 C 334.433594 251.234375 332.054688 251.992188 330.128906 250.988281 L 280.117188 225.0625 C 279.183594 224.578125 278.496094 223.761719 278.175781 222.757812 C 277.855469 221.75 277.941406 220.683594 278.4375 219.75 L 312.417969 154.199219 C 313.410156 152.273438 315.804688 151.53125 317.714844 152.523438 L 367.726562 178.449219 C 369.65625 179.441406 370.414062 181.816406 369.40625 183.742188 L 357.355469 206.96875 C 354.101562 202.914062 346.835938 195.066406 344.777344 193.589844 C 342.210938 191.738281 339.207031 197.589844 341.496094 200.578125 C 343.785156 203.570312 351.488281 214.570312 351.488281 214.570312 C 351.488281 214.570312 352.203125 216.425781 349.492188 217.140625 C 349.492188 217.140625 333.5 209.4375 331.078125 209.859375 C 328.65625 210.28125 327.796875 214.996094 331.078125 217.285156 C 331.078125 217.285156 327.941406 220.859375 330.289062 224.273438 C 330.289062 224.273438 330.277344 224.289062 330.261719 224.316406 L 329.957031 224.914062 L 330 224.945312 C 329.546875 226.226562 328.976562 229.042969 331.777344 230.546875 C 333.660156 231.554688 337.777344 234.835938 342.445312 237.332031 L 341.789062 236.996094 Z M 373.023438 226.695312 C 372.746094 234.046875 369.433594 246.917969 358.800781 248.550781 C 349.503906 249.980469 342.269531 244.085938 340.5625 242.554688 L 343.085938 237.695312 C 347.449219 239.941406 352.234375 241.371094 356.054688 239.5625 C 360.636719 237.390625 362.855469 234.867188 364.039062 232.078125 C 365.480469 228.636719 365.304688 224.726562 363.90625 221.269531 C 362.15625 216.949219 359.484375 210.429688 358.917969 209.160156 C 358.785156 208.867188 358.390625 208.3125 357.851562 207.613281 L 358.507812 207.949219 L 359.457031 206.125 C 361.324219 206.78125 367.464844 209.597656 369.875 218.628906 L 371.289062 218.246094 C 368.777344 208.867188 362.445312 205.6875 360.128906 204.824219 L 367.421875 190.761719 C 368.808594 197.691406 373.257812 220.421875 373.023438 226.695312 Z M 326.847656 196.101562 C 323.726562 194.480469 319.875 195.707031 318.253906 198.828125 C 316.636719 201.953125 317.859375 205.804688 320.984375 207.421875 C 324.105469 209.042969 327.957031 207.816406 329.574219 204.695312 C 331.195312 201.570312 329.984375 197.71875 326.847656 196.101562 Z M 131.78125 264.933594 C 128.6875 263.984375 125.273438 266.144531 124.164062 269.75 C 123.054688 273.351562 124.675781 277.042969 127.769531 277.992188 C 130.863281 278.941406 134.277344 276.78125 135.386719 273.175781 C 136.492188 269.589844 134.875 265.898438 131.78125 264.933594 Z M 165.628906 237.023438 L 147.539062 237.023438 L 147.347656 209.609375 C 151.257812 203.324219 145.960938 199.3125 145.90625 199.265625 L 145.464844 199.851562 C 145.464844 199.820312 148.894531 181.804688 147.554688 177.425781 L 148.253906 177.207031 C 147.625 175.136719 139.367188 170.320312 129.941406 165.40625 C 132.234375 155.777344 130.820312 126.917969 130.628906 116.53125 C 130.46875 107.324219 129.929688 86.167969 129.78125 80.59375 C 131.199219 78.449219 132.613281 75.109375 132.292969 70.632812 C 131.707031 62.417969 119.816406 48.9375 107.984375 48.484375 C 105.375 46.804688 102.355469 45.582031 98.851562 45.214844 C 84.464844 43.683594 73.277344 52.132812 70.796875 54.1875 C 71 46.179688 62.171875 41.789062 54.675781 42.515625 C 48.515625 43.113281 46.195312 47.578125 45.496094 49.433594 C 44.386719 49.679688 43.367188 50.046875 42.476562 50.570312 C 40.742188 51.589844 39.589844 53.125 39.121094 54.992188 C 38.699219 56.726562 39.035156 58.507812 40.085938 60.199219 C 39.441406 61.554688 37.648438 66.179688 40.289062 70.851562 C 40.375 71.011719 40.492188 71.15625 40.59375 71.316406 C 39.5 74.335938 36.960938 84.78125 53.753906 85.105469 C 53.960938 86.269531 54.28125 87.511719 54.746094 88.839844 L 55.417969 88.605469 C 55.257812 88.851562 45.539062 104.011719 70.636719 117.945312 C 70.765625 121.535156 70.925781 125.226562 71.074219 128.886719 L 68.824219 149.722656 C 64.199219 151.777344 24.238281 169.316406 18.78125 172.21875 C 11.867188 175.910156 11.5625 180.519531 12.523438 183.730469 C 13.414062 186.707031 14.523438 189.082031 15.003906 190.0625 C 13.984375 191.15625 10.890625 194.394531 8.597656 196.070312 C 5.199219 198.566406 7.316406 203.804688 8.378906 205.933594 L 9.035156 205.613281 C 9.007812 205.863281 0.398438 289.925781 7.476562 293.164062 L 7.167969 293.835938 C 10 295.121094 19.308594 295.820312 29.625 296.199219 C 25.101562 316.363281 31.78125 322.023438 31.78125 322.023438 C 31.78125 322.023438 11.503906 501.882812 11.503906 504.742188 C 13.152344 505.5 14.769531 506.144531 16.359375 506.710938 L 15.644531 506.550781 C 15.601562 506.757812 11.066406 527.488281 10.789062 551.546875 L 10.789062 552.144531 L 11.386719 552.261719 C 13.035156 552.597656 38.289062 557.617188 61.035156 557.617188 C 74.210938 557.617188 86.539062 555.9375 92.972656 550.683594 L 93.234375 550.464844 L 93.234375 550.132812 C 93.234375 550.074219 93.25 548.335938 92.78125 545.871094 C 98.882812 546.367188 104.484375 546.628906 109.546875 546.628906 C 124.9375 546.628906 135.546875 544.308594 141.191406 539.714844 L 141.453125 539.496094 L 141.453125 539.160156 C 141.453125 538.984375 141.628906 521.097656 124.675781 517.875 C 110.347656 515.160156 102.296875 503.851562 100.703125 501.402344 C 101.902344 500.992188 102.574219 500.714844 102.574219 500.714844 C 102.574219 500.714844 110.859375 420.226562 114.566406 385.398438 C 115.558594 376.179688 116.375 365.996094 117.058594 356.003906 L 117.453125 356.613281 C 126.296875 350.851562 127.710938 340.027344 127.914062 337.53125 C 129.710938 336.976562 130.773438 336.421875 130.863281 336.363281 L 131.125 336.21875 L 131.210938 335.941406 C 131.210938 335.941406 132.671875 331.375 134.671875 324.796875 C 136.449219 318.972656 140.054688 305.59375 140.8125 302.765625 L 145.480469 302.765625 C 147.335938 302.765625 148.996094 301.582031 149.609375 299.847656 L 169.757812 242.847656 C 170.238281 241.488281 170.035156 240.03125 169.203125 238.847656 C 168.371094 237.710938 167.074219 237.023438 165.628906 237.023438 Z M 126.910156 82.929688 C 126.9375 83.308594 126.980469 83.703125 127.011719 84.125 C 126.964844 83.703125 126.9375 83.308594 126.910156 82.929688 Z M 127.011719 84.214844 C 127.039062 84.621094 127.082031 85.058594 127.113281 85.511719 C 127.082031 85.058594 127.054688 84.621094 127.011719 84.214844 Z M 83.925781 73.988281 C 83.941406 73.972656 83.941406 73.957031 83.957031 73.929688 C 83.941406 73.957031 83.925781 73.972656 83.925781 73.988281 Z M 85.515625 71.449219 C 85.574219 71.375 85.632812 71.316406 85.691406 71.242188 C 85.632812 71.316406 85.574219 71.375 85.515625 71.449219 Z M 84.539062 72.820312 C 84.570312 72.761719 84.597656 72.71875 84.625 72.660156 C 84.597656 72.703125 84.582031 72.761719 84.539062 72.820312 Z M 89.382812 68.09375 C 89.425781 68.0625 89.457031 68.046875 89.5 68.019531 C 89.457031 68.046875 89.425781 68.078125 89.382812 68.09375 Z M 92.636719 66.355469 C 92.652344 66.339844 92.679688 66.339844 92.695312 66.328125 C 92.679688 66.339844 92.664062 66.355469 92.636719 66.355469 Z M 96.226562 65.027344 C 96.242188 65.027344 96.253906 65.027344 96.253906 65.015625 C 96.242188 65.027344 96.226562 65.027344 96.226562 65.027344 Z M 99.960938 64.082031 C 99.976562 64.082031 99.988281 64.082031 100.003906 64.066406 C 100.003906 64.082031 99.976562 64.082031 99.960938 64.082031 Z M 101.753906 63.757812 C 101.8125 63.746094 101.886719 63.746094 101.945312 63.730469 C 101.886719 63.746094 101.828125 63.746094 101.753906 63.757812 Z M 103.753906 63.480469 C 103.769531 63.480469 103.796875 63.480469 103.8125 63.480469 C 103.785156 63.480469 103.769531 63.480469 103.753906 63.480469 Z M 87.996094 69.070312 C 88.011719 69.054688 88.011719 69.054688 88.027344 69.039062 C 88.027344 69.039062 88.011719 69.054688 87.996094 69.070312 Z M 120.882812 67.714844 C 120.941406 67.773438 120.984375 67.828125 121.027344 67.886719 C 120.96875 67.828125 120.910156 67.769531 120.882812 67.714844 Z M 118.34375 65.453125 C 118.519531 65.582031 118.707031 65.699219 118.882812 65.832031 C 118.722656 65.699219 118.535156 65.582031 118.34375 65.453125 Z M 126.457031 105.382812 C 126.574219 104.683594 126.660156 103.996094 126.761719 103.296875 C 126.675781 103.996094 126.574219 104.699219 126.457031 105.382812 Z M 121.261719 68.179688 C 121.480469 68.441406 121.683594 68.71875 121.890625 68.996094 C 121.699219 68.71875 121.480469 68.457031 121.261719 68.179688 Z M 122.109375 69.304688 C 122.339844 69.652344 122.574219 70.003906 122.792969 70.355469 C 122.589844 70.003906 122.355469 69.652344 122.109375 69.304688 Z M 122.851562 70.441406 C 123.085938 70.820312 123.304688 71.199219 123.507812 71.59375 C 123.304688 71.199219 123.085938 70.820312 122.851562 70.441406 Z M 123.699219 71.945312 C 123.84375 72.207031 123.976562 72.46875 124.105469 72.746094 C 123.976562 72.46875 123.84375 72.207031 123.699219 71.945312 Z M 124.296875 73.140625 C 124.414062 73.402344 124.53125 73.664062 124.648438 73.914062 C 124.542969 73.664062 124.429688 73.402344 124.296875 73.140625 Z M 124.792969 74.25 C 124.9375 74.585938 125.070312 74.921875 125.1875 75.242188 C 125.070312 74.921875 124.9375 74.585938 124.792969 74.25 Z M 125.332031 75.636719 C 125.40625 75.839844 125.476562 76.027344 125.535156 76.21875 C 125.476562 76.015625 125.421875 75.824219 125.332031 75.636719 Z M 125.683594 76.597656 C 125.742188 76.773438 125.800781 76.933594 125.84375 77.09375 C 125.800781 76.949219 125.742188 76.773438 125.683594 76.597656 Z M 119.671875 66.503906 C 119.613281 66.457031 119.570312 66.414062 119.511719 66.355469 C 119.554688 66.398438 119.613281 66.445312 119.671875 66.503906 C 119.671875 66.488281 119.671875 66.503906 119.671875 66.503906 Z M 117.730469 65.027344 C 117.324219 64.796875 116.914062 64.578125 116.476562 64.386719 C 116.898438 64.578125 117.324219 64.796875 117.730469 65.027344 Z M 114.550781 63.804688 C 114.625 63.816406 114.695312 63.832031 114.769531 63.847656 C 114.695312 63.832031 114.625 63.816406 114.550781 63.804688 Z M 115.511719 64.066406 C 115.558594 64.082031 115.617188 64.09375 115.660156 64.109375 C 115.617188 64.09375 115.558594 64.082031 115.511719 64.066406 Z M 113.515625 63.597656 C 113.601562 63.613281 113.691406 63.628906 113.777344 63.644531 C 113.691406 63.628906 113.601562 63.613281 113.515625 63.597656 Z M 108.742188 63.203125 C 108.847656 63.203125 108.960938 63.203125 109.066406 63.203125 C 108.949219 63.21875 108.847656 63.21875 108.742188 63.203125 Z M 110.011719 63.25 C 110.128906 63.25 110.261719 63.261719 110.378906 63.261719 C 110.246094 63.25 110.128906 63.25 110.011719 63.25 Z M 111.238281 63.320312 C 111.355469 63.335938 111.472656 63.335938 111.589844 63.351562 C 111.472656 63.335938 111.355469 63.320312 111.238281 63.320312 Z M 112.40625 63.4375 C 112.507812 63.453125 112.609375 63.46875 112.710938 63.480469 C 112.609375 63.46875 112.507812 63.453125 112.40625 63.4375 Z M 86.757812 70.121094 C 86.714844 70.164062 86.667969 70.207031 86.625 70.25 C 86.667969 70.207031 86.714844 70.164062 86.757812 70.121094 Z M 127.070312 100.480469 C 127.128906 99.855469 127.171875 99.242188 127.214844 98.613281 C 127.171875 99.226562 127.128906 99.855469 127.070312 100.480469 Z M 126.851562 102.640625 C 126.921875 102.085938 126.980469 101.53125 127.023438 100.976562 C 126.964844 101.53125 126.910156 102.085938 126.851562 102.640625 Z M 127.390625 93.144531 C 127.390625 92.808594 127.390625 92.472656 127.390625 92.152344 C 127.390625 92.472656 127.390625 92.808594 127.390625 93.144531 Z M 127.300781 88.957031 C 127.300781 88.808594 127.289062 88.664062 127.289062 88.503906 C 127.289062 88.664062 127.300781 88.808594 127.300781 88.957031 Z M 127.375 91.289062 C 127.359375 90.777344 127.359375 90.269531 127.332031 89.773438 C 127.347656 90.269531 127.359375 90.765625 127.375 91.289062 Z M 127.375 94.046875 C 127.375 94.574219 127.359375 95.097656 127.347656 95.621094 C 127.359375 95.097656 127.375 94.574219 127.375 94.046875 Z M 127.316406 96.527344 C 127.300781 96.949219 127.289062 97.359375 127.257812 97.78125 C 127.289062 97.359375 127.300781 96.9375 127.316406 96.527344 Z M 126.804688 81.980469 C 126.617188 80.261719 126.46875 79.222656 126.46875 79.222656 C 126.46875 79.222656 126.457031 79.179688 126.441406 79.121094 C 126.457031 79.179688 126.46875 79.222656 126.46875 79.222656 C 126.46875 79.222656 126.617188 80.246094 126.804688 81.980469 Z M 125.960938 77.429688 C 126.03125 77.664062 126.089844 77.882812 126.148438 78.070312 C 126.089844 77.867188 126.03125 77.664062 125.960938 77.429688 Z M 126.222656 78.304688 C 126.25 78.421875 126.28125 78.523438 126.308594 78.625 C 126.28125 78.539062 126.25 78.421875 126.222656 78.304688 Z M 126.367188 78.816406 C 126.398438 78.902344 126.414062 78.960938 126.425781 79.019531 C 126.398438 78.976562 126.382812 78.890625 126.367188 78.816406 Z M 104.964844 134.636719 C 106.46875 134.765625 107.914062 134.839844 109.253906 134.839844 C 111.09375 134.839844 112.757812 134.738281 114.140625 134.605469 C 114.667969 134.5625 115.164062 134.445312 115.644531 134.300781 C 115.484375 136.734375 115.191406 142.617188 115.734375 146.699219 C 116.242188 150.582031 115.777344 155.964844 115.558594 158.183594 C 110.128906 155.542969 105.476562 153.367188 103.070312 152.246094 Z M 53.753906 504.742188 L 62.667969 462.679688 L 61.179688 504.175781 C 61.75 504.347656 62.320312 504.507812 62.886719 504.65625 C 62.726562 505.179688 61.253906 510.214844 60.160156 520.25 C 53.566406 514.53125 49.277344 508.039062 48.648438 507.0625 C 51.929688 505.878906 53.753906 504.742188 53.753906 504.742188 Z M 69.847656 150.886719 L 70.242188 150.714844 L 71.523438 138.792969 C 71.773438 145.082031 71.976562 150.828125 72.066406 155.367188 C 72.285156 166.425781 73.347656 171.589844 75.859375 173.777344 C 77.039062 174.816406 78.441406 175.121094 80.089844 175.121094 C 80.980469 175.121094 81.941406 175.035156 82.976562 174.917969 C 87.808594 174.363281 87.707031 170.308594 87.589844 165.171875 C 87.515625 162.136719 87.414062 158.34375 88.1875 154.15625 C 88.769531 150.945312 88.929688 146.148438 88.828125 140.734375 C 90.929688 140.910156 92.796875 140.996094 94.402344 140.996094 C 98.910156 140.996094 101.566406 140.425781 102.9375 139.976562 L 101.523438 153.136719 L 102.003906 153.355469 C 106.394531 155.382812 111.472656 157.804688 116.59375 160.3125 C 116.230469 179.089844 93.175781 180.460938 92.214844 180.503906 C 58.496094 180.503906 53.667969 161.726562 53.054688 158.285156 C 62.203125 154.242188 69.671875 150.960938 69.847656 150.886719 Z M 17.0625 506.945312 C 22.285156 508.710938 27.144531 509.5 31.503906 509.660156 L 32.511719 509.789062 C 32.511719 509.777344 32.511719 509.730469 32.527344 509.6875 C 38.960938 509.789062 44.257812 508.566406 47.949219 507.308594 L 47.335938 507.691406 C 47.582031 508.097656 50.851562 513.320312 56.265625 518.691406 C 54.179688 520.222656 48.34375 524.949219 45.804688 531.542969 L 47.160156 532.070312 C 49.609375 525.691406 55.59375 520.996094 57.328125 519.726562 C 58.671875 520.996094 60.128906 522.25 61.691406 523.433594 C 59.941406 525.285156 54.863281 530.902344 53.636719 535.089844 L 55.039062 535.496094 C 56.191406 531.558594 61.339844 525.925781 62.886719 524.308594 C 66.785156 527.078125 71.261719 529.371094 76.195312 530.304688 C 85.007812 531.980469 88.828125 537.757812 90.492188 542.660156 C 69.527344 556.199219 18.402344 545.15625 12.496094 543.8125 C 13.429688 524.074219 16.796875 508.171875 17.0625 506.945312 Z M 12.246094 550.960938 C 12.277344 549.050781 12.335938 547.15625 12.40625 545.300781 C 17.003906 546.351562 37.9375 550.875 58.308594 550.875 C 70.648438 550.875 82.757812 549.195312 90.914062 544.105469 C 91.628906 546.746094 91.746094 548.949219 91.761719 549.796875 C 75.289062 562.621094 18.695312 552.203125 12.246094 550.960938 Z M 139.996094 538.824219 C 132.714844 544.484375 116.285156 546.410156 92.445312 544.410156 C 92.039062 542.75 91.398438 540.894531 90.433594 539.042969 C 95.453125 539.507812 100.921875 539.859375 106.484375 539.859375 C 118.59375 539.859375 130.949219 538.269531 139.148438 533.164062 C 139.863281 535.789062 139.980469 537.992188 139.996094 538.824219 Z M 104.132812 507.980469 C 101.8125 509.746094 96.429688 514.328125 94.023438 520.574219 L 95.378906 521.097656 C 97.683594 515.117188 103.082031 510.621094 105.167969 509.03125 C 106.453125 510.273438 107.925781 511.554688 109.605469 512.78125 C 107.636719 514.898438 103.011719 520.148438 101.84375 524.117188 L 103.242188 524.527344 C 104.335938 520.804688 109.007812 515.566406 110.816406 513.628906 C 114.492188 516.121094 119.015625 518.3125 124.398438 519.332031 C 133.210938 520.996094 137.035156 526.789062 138.695312 531.691406 C 126.910156 539.304688 105.59375 539.070312 89.542969 537.496094 C 87.121094 533.660156 83.109375 530.128906 76.441406 528.875 C 70.824219 527.808594 65.746094 524.832031 61.515625 521.390625 C 62.640625 510.492188 64.289062 505.109375 64.304688 505.050781 L 63.648438 504.84375 C 77.359375 508.082031 92.695312 504.042969 99.261719 501.914062 C 99.726562 502.640625 101.347656 505.09375 104.132812 507.980469 Z M 117.703125 345.761719 C 117.527344 348.824219 117.324219 351.945312 117.117188 355.097656 C 117.324219 351.945312 117.511719 348.824219 117.703125 345.761719 Z M 168.386719 242.394531 L 148.238281 299.394531 C 147.832031 300.5625 146.722656 301.351562 145.480469 301.351562 L 81.167969 301.351562 C 80.234375 301.351562 79.375 300.914062 78.820312 300.152344 C 78.265625 299.394531 78.105469 298.445312 78.382812 297.558594 L 79.988281 292.347656 C 83.808594 292.320312 90.957031 292.101562 93.292969 290.933594 C 96.253906 289.460938 95.640625 285.242188 95.320312 283.753906 C 98.371094 281.597656 98.179688 278.167969 97.496094 276.152344 C 99.449219 274.898438 99.65625 272.492188 99.378906 270.667969 C 101.363281 271.398438 103.332031 271.953125 105.066406 272.140625 C 105.492188 272.183594 105.898438 272.214844 106.277344 272.214844 C 108.234375 272.214844 109.621094 271.617188 110.4375 270.421875 C 111.003906 269.589844 111.179688 268.566406 110.945312 267.5625 C 110.699219 266.464844 109.984375 265.503906 109.007812 264.949219 C 101.449219 260.617188 96.195312 257.597656 93.496094 256.050781 C 94.007812 254.402344 95.859375 248.8125 98.605469 240.527344 C 98.996094 239.328125 100.121094 238.527344 101.375 238.527344 L 165.613281 238.527344 C 166.578125 238.527344 167.453125 238.980469 168.007812 239.769531 C 168.5625 240.554688 168.707031 241.488281 168.386719 242.394531 Z M 168.386719 242.394531 " fill-opacity="1" fill-rule="nonzero"/><path fill="rgb(43.919373%, 29.019165%, 20.779419%)" d="M 126.457031 105.382812 C 124.878906 114.910156 122.226562 123.195312 120.519531 128.652344 C 119.628906 131.542969 117.089844 133.585938 114.070312 133.875 C 111.441406 134.125 108.015625 134.242188 104.324219 133.832031 L 103.785156 138.835938 C 103.785156 138.835938 100.105469 141.082031 88.070312 139.929688 C 87.984375 136.007812 87.765625 131.777344 87.488281 127.589844 C 86.800781 117.070312 85.722656 106.871094 85.339844 102.640625 C 84.816406 96.921875 83.867188 83.542969 83.300781 75.648438 C 86.496094 63.789062 109.167969 61.367188 116.460938 64.386719 C 123.785156 67.4375 126.457031 79.210938 126.457031 79.210938 C 126.457031 79.210938 128.542969 92.703125 126.457031 105.382812 Z M 108.640625 265.546875 C 104.335938 263.082031 92.941406 256.546875 91.25 255.539062 C 89.148438 254.3125 69.367188 262.105469 69.367188 262.105469 C 65.105469 268.609375 64.390625 281.128906 64.40625 288.933594 C 67.644531 290.085938 77.535156 291.605469 77.535156 291.605469 C 77.535156 291.605469 89.910156 291.792969 92.957031 290.277344 C 96.007812 288.746094 94.476562 283.417969 94.476562 283.417969 C 98.851562 280.765625 96.574219 275.816406 96.574219 275.816406 C 99.886719 274.332031 98.445312 269.792969 98.339844 269.488281 C 100.703125 270.421875 103.097656 271.179688 105.140625 271.398438 C 107.796875 271.691406 109.152344 270.960938 109.824219 269.984375 C 110.832031 268.496094 110.1875 266.4375 108.640625 265.546875 Z M 364.039062 232.078125 C 365.480469 228.636719 365.304688 224.726562 363.90625 221.269531 C 362.15625 216.949219 359.484375 210.429688 358.917969 209.160156 C 358.054688 207.234375 347.359375 195.460938 344.792969 193.605469 C 342.226562 191.753906 339.21875 197.605469 341.511719 200.59375 C 343.800781 203.585938 351.503906 214.585938 351.503906 214.585938 C 351.503906 214.585938 352.21875 216.4375 349.503906 217.152344 C 349.503906 217.152344 333.515625 209.449219 331.09375 209.875 C 328.671875 210.296875 327.8125 215.007812 331.09375 217.300781 C 331.09375 217.300781 327.957031 220.875 330.304688 224.289062 C 330.304688 224.289062 328.089844 228.5625 331.808594 230.5625 C 335.515625 232.558594 347.929688 243.398438 356.070312 239.546875 C 360.636719 237.402344 362.855469 234.867188 364.039062 232.078125 Z M 118.140625 337.839844 C 117.832031 343.644531 117.46875 349.800781 117.046875 356.03125 C 126.660156 349.773438 127.214844 336.992188 127.214844 336.992188 C 125.039062 337.621094 121.875 338.175781 118.140625 337.839844 Z M 316.941406 75.808594 C 310.625 72.265625 307.109375 79.210938 307.109375 79.210938 L 306.960938 79.210938 C 306.992188 78.421875 307.019531 77.605469 307.050781 76.757812 C 298.105469 75.808594 296.003906 56.976562 296.003906 56.976562 C 296.003906 56.976562 272.414062 54.117188 263.660156 55.824219 C 254.90625 57.542969 254.335938 67.027344 254.335938 67.027344 C 254.335938 67.027344 255.664062 99.210938 257.574219 104.15625 C 259.472656 109.105469 266.707031 121.097656 272.414062 121.664062 C 272.878906 121.710938 273.347656 121.753906 273.8125 121.765625 L 273.8125 125.238281 L 278.6875 128.375 L 280.683594 136.851562 C 281.617188 136.910156 282.609375 136.984375 283.601562 137.070312 L 287.351562 129.089844 L 304.90625 122.101562 L 308.769531 96.71875 C 318.664062 93.289062 322.601562 78.960938 316.941406 75.808594 Z M 210.757812 327.625 C 210.757812 327.625 205.78125 346.605469 220.53125 348.035156 L 220.546875 348.035156 C 221.101562 341.574219 221.816406 334.992188 222.574219 328.660156 C 222.195312 328.691406 216.15625 329.027344 210.757812 327.625 Z M 241.378906 410.042969 L 226.894531 409.605469 C 223.230469 409.488281 220.066406 412.128906 219.523438 415.761719 C 217.074219 432.347656 212.140625 475.941406 227.609375 479.632812 C 242.96875 483.296875 247.273438 436.363281 248.382812 417.714844 C 248.617188 413.632812 245.449219 410.160156 241.378906 410.042969 Z M 241.378906 410.042969 " fill-opacity="1" fill-rule="nonzero"/><path fill="rgb(23.139954%, 17.248535%, 14.118958%)" d="M 130.644531 116.53125 C 130.832031 127.195312 132.320312 157.351562 129.769531 166.148438 C 125.246094 163.800781 120.460938 161.40625 116.171875 159.304688 C 116.230469 158.882812 117.117188 151.589844 116.460938 146.597656 C 115.820312 141.652344 116.417969 133.816406 116.460938 133.25 C 118.375 132.375 119.875 130.738281 120.519531 128.652344 C 122.226562 123.195312 124.878906 114.910156 126.457031 105.382812 C 127.871094 96.761719 127.359375 87.757812 126.894531 82.886719 C 126.675781 80.59375 126.457031 79.210938 126.457031 79.210938 C 126.457031 79.210938 124.878906 72.28125 120.851562 67.683594 C 119.613281 66.285156 118.167969 65.101562 116.460938 64.386719 C 114.40625 63.539062 111.136719 63.117188 107.417969 63.21875 C 97.949219 63.480469 85.589844 67.144531 83.300781 75.648438 C 83.867188 83.542969 84.816406 96.921875 85.339844 102.640625 C 85.722656 106.871094 86.800781 117.070312 87.488281 127.589844 C 88.15625 137.832031 88.480469 148.394531 87.441406 154.023438 C 85.34375 165.433594 89.527344 173.429688 82.875 174.1875 C 76.207031 174.945312 73.160156 174.566406 72.78125 155.351562 C 72.605469 146.101562 71.933594 131.746094 71.421875 118.351562 C 45.148438 104.1875 55.460938 88.574219 55.460938 88.574219 C 55.023438 87.351562 54.71875 86.199219 54.511719 85.105469 C 33.972656 85.074219 40.960938 70.484375 40.960938 70.484375 C 38.054688 65.335938 40.960938 60.140625 40.960938 60.140625 C 39.878906 58.59375 39.425781 56.902344 39.863281 55.152344 C 40.507812 52.570312 42.535156 50.921875 45.261719 50.234375 C 45.261719 50.234375 46.898438 43.261719 54.703125 42.503906 C 62.507812 41.742188 71.789062 46.527344 70.78125 55.167969 L 70.796875 55.167969 C 71.132812 54.859375 82.917969 44.253906 98.808594 45.929688 C 102.265625 46.296875 105.257812 47.507812 107.808594 49.183594 C 119.117188 49.476562 131.023438 62.765625 131.589844 70.675781 C 131.855469 74.308594 130.890625 77.183594 129.769531 79.210938 C 129.769531 79.210938 130.453125 105.878906 130.644531 116.53125 Z M 311.761719 153.878906 C 312.945312 151.589844 315.757812 150.699219 318.050781 151.878906 L 344.164062 165.417969 C 346.398438 157.367188 355.269531 146.699219 355.269531 146.699219 C 349.257812 139.433594 320.269531 131.105469 318.792969 129.324219 C 317.234375 127.414062 311.46875 127.238281 311.46875 127.238281 L 314.941406 131.949219 C 314.941406 131.949219 304.859375 150.070312 293.960938 156.34375 C 293.949219 155.90625 293.976562 153.980469 293.785156 151.355469 C 280.789062 158.605469 273.726562 151.355469 273.726562 151.355469 C 273.683594 154.300781 273.8125 156.34375 273.8125 156.34375 C 261.792969 147.925781 260.710938 131.089844 260.710938 131.089844 C 260.710938 131.089844 243.949219 135.933594 232.625 139.929688 C 232.625 139.929688 231.3125 205.308594 241.015625 255.539062 C 241.015625 255.539062 298.191406 267.269531 329.78125 251.628906 L 279.765625 225.703125 C 277.488281 224.523438 276.585938 221.707031 277.78125 219.429688 Z M 253.578125 546.410156 C 253.578125 546.410156 248.441406 559.265625 228.746094 557.265625 C 209.050781 555.265625 204.789062 546.703125 204.789062 546.703125 C 204.789062 546.703125 204.761719 535 206.191406 527.285156 C 207.621094 519.582031 211.105469 499.167969 211.105469 499.167969 C 229.429688 486.449219 242.199219 501.546875 242.199219 501.546875 C 243.683594 510.054688 245.011719 520.441406 245.011719 520.441406 C 252.148438 531.28125 253.578125 546.410156 253.578125 546.410156 Z M 341.757812 546.703125 C 341.757812 546.703125 337.5 555.265625 317.800781 557.265625 C 298.105469 559.265625 292.96875 546.410156 292.96875 546.410156 C 292.96875 546.410156 294.398438 531.28125 301.535156 520.441406 C 301.535156 520.441406 302.863281 510.054688 304.335938 501.546875 C 310.550781 502.917969 322.195312 504.171875 335.441406 499.167969 C 335.441406 499.167969 338.929688 519.582031 340.359375 527.285156 C 341.773438 535 341.757812 546.703125 341.757812 546.703125 Z M 341.757812 546.703125 " fill-opacity="1" fill-rule="nonzero"/><path fill="rgb(83.918762%, 37.649536%, 17.649841%)" d="M 140.242188 302.078125 C 140.242188 302.078125 135.96875 318.054688 133.96875 324.621094 C 131.972656 331.1875 130.511719 335.753906 130.511719 335.753906 C 130.511719 335.753906 125.449219 338.480469 118.140625 337.839844 C 119.234375 317.835938 119.699219 302.078125 119.699219 302.078125 Z M 145.480469 199.851562 C 145.480469 199.851562 148.910156 181.804688 147.566406 177.425781 C 146.765625 174.769531 130.191406 166.191406 117.324219 159.875 C 117.324219 180.007812 92.199219 181.234375 92.199219 181.234375 C 54.703125 181.234375 52.238281 157.847656 52.238281 157.847656 C 38.988281 163.699219 22.445312 171.078125 19.117188 172.859375 C 13.414062 175.910156 12.085938 179.71875 13.222656 183.511719 C 14.363281 187.316406 15.878906 190.175781 15.878906 190.175781 C 15.878906 190.175781 11.882812 194.554688 9.035156 196.640625 C 6.175781 198.742188 7.898438 203.308594 9.035156 205.585938 C 9.035156 205.585938 0.386719 289.910156 7.476562 293.136719 C 14.550781 296.359375 64.609375 295.792969 64.609375 295.792969 C 64.609375 295.792969 62.886719 272.011719 69.367188 262.105469 C 69.367188 262.105469 89.148438 254.3125 91.25 255.539062 C 91.511719 255.699219 91.980469 255.976562 92.636719 256.355469 C 92.636719 256.152344 96.242188 245.269531 97.917969 240.25 C 98.414062 238.761719 99.816406 237.753906 101.390625 237.753906 L 146.808594 237.753906 L 146.621094 209.390625 C 150.425781 203.496094 145.480469 199.851562 145.480469 199.851562 Z M 284.59375 154.214844 C 292.488281 151.648438 290.882812 138.339844 290.882812 138.339844 C 287.222656 136.882812 275.945312 136.664062 275.945312 136.664062 C 273.316406 143.230469 276.703125 156.78125 284.59375 154.214844 Z M 341.203125 316.976562 C 338.929688 266.671875 332.726562 252.082031 332.726562 252.082031 C 331.765625 252.257812 330.730469 252.125 329.78125 251.628906 C 298.191406 267.269531 241.015625 255.539062 241.015625 255.539062 C 241.015625 255.539062 227.316406 276.664062 228.453125 281.523438 C 229.589844 286.367188 228.378906 288.949219 228.378906 288.949219 C 228.378906 288.949219 217.597656 350.605469 219.597656 379.433594 L 262.417969 379.433594 L 281.125 317.601562 C 281.808594 317.617188 282.523438 317.617188 283.253906 317.601562 L 283.253906 317.617188 C 283.253906 317.617188 290.679688 391.996094 293.246094 403.402344 C 295.816406 414.828125 299.535156 500.175781 299.535156 500.175781 C 299.535156 500.175781 316.664062 507.019531 337.207031 498.453125 C 337.207031 498.453125 340.066406 434.230469 338.929688 399.40625 C 337.777344 364.582031 343.496094 367.28125 341.203125 316.976562 Z M 341.203125 316.976562 " fill-opacity="1" fill-rule="nonzero"/><path fill="rgb(0%, 0%, 0%)" d="M 323.652344 62.007812 C 320.792969 72.425781 318.472656 77.253906 318.472656 77.253906 C 318.078125 76.65625 317.570312 76.160156 316.941406 75.808594 C 310.625 72.265625 307.109375 79.210938 307.109375 79.210938 L 306.976562 79.164062 C 306.992188 78.394531 307.019531 77.589844 307.050781 76.757812 C 298.105469 75.808594 296.003906 56.976562 296.003906 56.976562 C 296.003906 56.976562 272.414062 54.117188 263.660156 55.824219 C 254.90625 57.542969 254.335938 67.027344 254.335938 67.027344 C 254.335938 67.027344 254.527344 71.679688 254.875 77.707031 C 254.46875 77.941406 254.058594 78.171875 253.636719 78.40625 C 249.097656 75.199219 243.683594 67.1875 242.007812 64.722656 C 240.15625 62.007812 251.285156 43.742188 260.566406 35.46875 C 269.84375 27.183594 298.527344 24.046875 307.660156 28.46875 C 316.796875 32.902344 311.660156 44.457031 311.660156 44.457031 C 311.660156 44.457031 326.511719 51.589844 323.652344 62.007812 Z M 81.167969 302.078125 C 78.703125 302.078125 76.953125 299.6875 77.667969 297.339844 L 79.449219 291.617188 C 78.28125 291.617188 77.535156 291.605469 77.535156 291.605469 C 77.535156 291.605469 67.644531 290.085938 64.40625 288.933594 C 64.40625 293.003906 64.609375 295.792969 64.609375 295.792969 C 64.609375 295.792969 45.921875 296.011719 29.769531 295.425781 L 29.785156 295.441406 C 24.925781 316.203125 31.78125 321.980469 31.78125 321.980469 C 31.78125 321.980469 11.503906 501.882812 11.503906 504.742188 C 35.765625 515.875 53.753906 504.742188 53.753906 504.742188 L 62.667969 462.679688 L 61.179688 504.175781 C 79.726562 509.878906 102.558594 500.746094 102.558594 500.746094 C 102.558594 500.746094 110.84375 420.253906 114.550781 385.429688 C 118.269531 350.605469 119.699219 302.078125 119.699219 302.078125 Z M 223.886719 379.433594 C 223.886719 379.433594 224.457031 394.5625 236.726562 394.5625 C 249.011719 394.5625 251.855469 386.277344 253.578125 379.433594 Z M 223.886719 379.433594 " fill-opacity="1" fill-rule="nonzero"/><path fill="rgb(100%, 100%, 100%)" d="M 296.019531 81.71875 C 287.644531 90.472656 278.703125 84.199219 278.703125 84.199219 C 283.457031 72.382812 296.019531 81.71875 296.019531 81.71875 Z M 261.46875 79.238281 C 257.019531 78.816406 254.90625 84.316406 254.90625 84.316406 C 261.894531 91.523438 268.035156 84.316406 268.035156 84.316406 C 268.035156 84.316406 265.921875 79.660156 261.46875 79.238281 Z M 90.199219 96.292969 C 90.199219 96.292969 99.246094 104.273438 107.429688 97.988281 C 107.429688 97.988281 105.914062 89.613281 99.816406 90.941406 C 93.730469 92.28125 90.199219 96.292969 90.199219 96.292969 Z M 117.324219 98.453125 C 117.324219 98.453125 121.699219 103.96875 125.699219 98.453125 C 125.699219 98.453125 125.316406 92.179688 122.269531 91.988281 C 119.21875 91.800781 117.324219 98.453125 117.324219 98.453125 Z M 117.324219 98.453125 " fill-opacity="1" fill-rule="nonzero"/><path fill="rgb(0%, 0%, 0%)" d="M 124.675781 517.902344 C 108.65625 514.867188 100.472656 501.066406 100.382812 500.933594 L 99.128906 501.664062 C 99.171875 501.722656 100.851562 504.566406 104.148438 507.980469 C 101.828125 509.746094 96.445312 514.328125 94.039062 520.574219 L 95.394531 521.097656 C 97.699219 515.117188 103.097656 510.621094 105.183594 509.03125 C 106.46875 510.273438 107.941406 511.554688 109.621094 512.78125 C 107.648438 514.898438 103.023438 520.148438 101.859375 524.117188 L 103.257812 524.527344 C 104.351562 520.804688 109.019531 515.566406 110.832031 513.628906 C 114.507812 516.121094 119.03125 518.3125 124.414062 519.332031 C 133.226562 520.996094 137.046875 526.789062 138.710938 531.691406 C 126.921875 539.304688 105.605469 539.070312 89.558594 537.496094 C 87.136719 533.660156 83.125 530.128906 76.457031 528.875 C 70.839844 527.808594 65.761719 524.832031 61.53125 521.390625 C 62.65625 510.492188 64.304688 505.109375 64.316406 505.050781 L 62.917969 504.613281 C 62.84375 504.832031 61.3125 509.863281 60.175781 520.25 C 53.070312 514.09375 48.648438 507.035156 48.574219 506.917969 L 47.335938 507.691406 C 47.582031 508.097656 50.851562 513.320312 56.265625 518.691406 C 54.179688 520.222656 48.34375 524.949219 45.804688 531.542969 L 47.160156 532.070312 C 49.609375 525.691406 55.59375 520.996094 57.328125 519.726562 C 58.671875 520.996094 60.128906 522.25 61.691406 523.433594 C 59.941406 525.285156 54.863281 530.902344 53.636719 535.089844 L 55.039062 535.496094 C 56.191406 531.558594 61.339844 525.925781 62.886719 524.308594 C 66.785156 527.078125 71.261719 529.371094 76.195312 530.304688 C 85.007812 531.980469 88.828125 537.757812 90.492188 542.660156 C 69.527344 556.199219 18.402344 545.15625 12.496094 543.8125 C 13.488281 523.386719 17.046875 507.0625 17.089844 506.871094 L 15.660156 506.550781 C 15.617188 506.757812 11.078125 527.488281 10.800781 551.546875 L 10.800781 552.144531 L 11.402344 552.261719 C 13.050781 552.597656 38.304688 557.617188 61.050781 557.617188 C 74.222656 557.617188 86.554688 555.9375 92.988281 550.683594 L 93.25 550.464844 L 93.25 550.128906 C 93.25 550.074219 93.265625 548.335938 92.796875 545.871094 C 98.894531 546.367188 104.5 546.628906 109.5625 546.628906 C 124.953125 546.628906 135.558594 544.308594 141.207031 539.714844 L 141.46875 539.496094 L 141.46875 539.160156 C 141.46875 539.011719 141.644531 521.125 124.675781 517.902344 Z M 12.246094 550.960938 C 12.277344 549.050781 12.335938 547.15625 12.40625 545.300781 C 17.003906 546.351562 37.9375 550.875 58.308594 550.875 C 70.648438 550.875 82.757812 549.195312 90.914062 544.105469 C 91.628906 546.746094 91.746094 548.949219 91.761719 549.796875 C 75.289062 562.621094 18.695312 552.203125 12.246094 550.960938 Z M 139.996094 538.824219 C 132.714844 544.484375 116.285156 546.410156 92.445312 544.410156 C 92.039062 542.75 91.398438 540.894531 90.433594 539.042969 C 95.453125 539.507812 100.921875 539.859375 106.484375 539.859375 C 118.59375 539.859375 130.949219 538.269531 139.148438 533.164062 C 139.863281 535.789062 139.980469 537.992188 139.996094 538.824219 Z M 296.019531 81.71875 C 294.867188 80.347656 293.394531 79.28125 291.773438 78.480469 C 290.152344 77.679688 288.332031 77.109375 286.390625 77.136719 C 284.464844 77.152344 282.449219 77.941406 281.09375 79.3125 C 279.648438 80.625 279.035156 82.464844 278.714844 84.171875 C 278.714844 84.183594 278.699219 84.183594 278.699219 84.199219 C 278.699219 84.199219 281.429688 86.109375 285.28125 86.34375 C 286.113281 85.277344 286.609375 83.878906 286.609375 82.300781 C 286.609375 81.238281 286.359375 80.230469 285.953125 79.371094 C 286.113281 79.355469 286.273438 79.328125 286.433594 79.328125 C 287.964844 79.28125 289.554688 79.632812 291.160156 80.054688 C 292.738281 80.507812 294.339844 81.089844 296.019531 81.71875 Z M 254.90625 84.332031 C 254.90625 84.316406 254.90625 84.316406 254.90625 84.332031 C 257.648438 87.160156 260.246094 87.757812 262.40625 87.46875 C 263.25 86.402344 263.761719 84.972656 263.761719 83.382812 C 263.761719 82.449219 263.570312 81.574219 263.25 80.800781 C 264.941406 81.457031 266.535156 82.753906 268.035156 84.332031 C 267.789062 82.8125 267.015625 81.398438 265.875 80.246094 C 264.769531 79.078125 263.148438 78.277344 261.425781 78.144531 C 260.535156 78.085938 259.632812 78.246094 258.816406 78.582031 C 258.011719 78.960938 257.328125 79.472656 256.789062 80.085938 C 255.722656 81.324219 255.082031 82.796875 254.90625 84.332031 C 254.90625 84.316406 254.90625 84.316406 254.90625 84.332031 C 254.90625 84.316406 254.90625 84.316406 254.90625 84.332031 C 254.90625 84.316406 254.90625 84.316406 254.90625 84.332031 Z M 296.019531 74.101562 C 281.941406 64.589844 273.1875 67.4375 273.1875 67.4375 C 273.1875 74.292969 296.019531 74.101562 296.019531 74.101562 Z M 263.660156 71.433594 C 263.660156 71.433594 262.898438 67.054688 260.039062 68.195312 C 257.179688 69.332031 254.90625 75.808594 254.90625 75.808594 C 254.90625 75.808594 261.574219 74.292969 263.660156 71.433594 Z M 326.847656 196.101562 C 323.726562 194.480469 319.875 195.707031 318.253906 198.828125 C 316.636719 201.953125 317.859375 205.804688 320.984375 207.421875 C 324.105469 209.042969 327.957031 207.816406 329.574219 204.695312 C 331.195312 201.570312 329.984375 197.71875 326.847656 196.101562 Z M 283.269531 269.253906 C 283.269531 271.457031 284.421875 273.25 285.835938 273.25 C 287.25 273.25 288.402344 271.457031 288.402344 269.253906 C 288.402344 267.050781 287.25 265.253906 285.835938 265.253906 C 284.421875 265.253906 283.269531 267.050781 283.269531 269.253906 Z M 105.140625 78.289062 C 102.28125 78.101562 88.390625 81.777344 88.390625 81.777344 L 87.441406 87.527344 C 87.441406 87.527344 99.625 85.714844 108.570312 85.527344 C 108.570312 85.511719 108 78.480469 105.140625 78.289062 Z M 97.671875 92.660156 C 98.167969 92.5 98.675781 92.355469 99.1875 92.222656 C 98.445312 93.1875 98.003906 94.425781 98.003906 95.796875 C 98.003906 97.722656 98.882812 99.417969 100.222656 100.394531 C 102.527344 100.464844 105.007812 99.855469 107.417969 98 C 107.417969 98 107.417969 97.988281 107.417969 97.988281 C 107.417969 97.988281 107.417969 98 107.429688 98 C 107.460938 96.046875 106.980469 94.046875 105.769531 92.3125 C 105.167969 91.449219 104.308594 90.675781 103.242188 90.195312 C 102.164062 89.757812 100.96875 89.65625 99.875 89.859375 C 97.84375 90.253906 95.992188 91.042969 94.328125 92.136719 C 92.679688 93.230469 91.191406 94.601562 90.214844 96.308594 C 91.847656 95.257812 93.484375 94.382812 95.160156 93.640625 C 95.976562 93.289062 96.808594 92.910156 97.671875 92.660156 Z M 125.609375 94.121094 C 125.40625 93.390625 125.097656 92.632812 124.488281 91.960938 C 123.886719 91.273438 122.808594 90.777344 121.757812 90.925781 C 120.707031 91.070312 119.933594 91.683594 119.394531 92.28125 C 118.839844 92.894531 118.488281 93.566406 118.183594 94.238281 C 117.601562 95.59375 117.292969 97.007812 117.324219 98.453125 C 118.15625 97.273438 118.882812 96.132812 119.65625 95.082031 C 120.109375 94.46875 120.632812 93.902344 121.128906 93.523438 C 120.78125 94.339844 120.546875 95.273438 120.546875 96.292969 C 120.546875 98.191406 121.261719 99.867188 122.339844 100.847656 C 123.421875 100.683594 124.558594 100 125.683594 98.453125 C 125.683594 98.453125 125.683594 98.4375 125.683594 98.4375 C 125.683594 98.4375 125.683594 98.453125 125.699219 98.453125 C 126.03125 97.050781 126.019531 95.59375 125.609375 94.121094 Z M 131.78125 264.933594 C 128.6875 263.984375 125.273438 266.144531 124.164062 269.75 C 123.054688 273.351562 124.675781 277.042969 127.769531 277.992188 C 130.863281 278.941406 134.277344 276.78125 135.386719 273.175781 C 136.492188 269.589844 134.875 265.898438 131.78125 264.933594 Z M 269.261719 85.277344 C 267.191406 91.128906 266.210938 94.617188 266.199219 94.644531 L 266.066406 95.113281 L 266.429688 95.417969 C 266.5625 95.519531 269.613281 97.988281 272.921875 99.152344 L 273.40625 97.78125 C 270.96875 96.921875 268.621094 95.257812 267.714844 94.585938 C 268.050781 93.464844 268.984375 90.355469 270.605469 85.773438 C 272.851562 79.441406 266.445312 74.496094 266.167969 74.292969 L 265.292969 75.460938 C 265.378906 75.488281 271.144531 79.953125 269.261719 85.277344 Z M 270.792969 104.582031 L 270.632812 106.023438 C 270.734375 106.039062 271.480469 106.113281 272.644531 106.113281 C 276.074219 106.113281 283.28125 105.457031 289.628906 100.554688 L 288.738281 99.402344 C 280.683594 105.601562 270.882812 104.59375 270.792969 104.582031 Z M 278.351562 96.9375 L 279.035156 95.652344 C 276.394531 94.222656 273.214844 94.601562 273.085938 94.617188 L 273.257812 96.0625 C 273.304688 96.0625 276.117188 95.738281 278.351562 96.9375 Z M 314.503906 79.152344 L 313.832031 77.851562 C 308.1875 80.757812 306 88.679688 305.898438 89.015625 L 307.296875 89.394531 C 307.328125 89.320312 309.425781 81.75 314.503906 79.152344 Z M 330.742188 217.941406 L 345.726562 225.644531 L 346.398438 224.347656 L 331.414062 216.644531 Z M 329.96875 224.945312 L 342.457031 231.21875 L 343.117188 229.917969 L 330.625 223.644531 Z M 368.488281 188.691406 L 370.703125 184.429688 C 372.078125 181.789062 371.039062 178.535156 368.398438 177.164062 L 364.738281 175.265625 C 364.066406 172.714844 359.398438 154.972656 356.886719 147.96875 C 354.902344 142.441406 338.578125 136.34375 327.78125 132.300781 C 323.886719 130.84375 319.859375 129.339844 319.378906 128.859375 C 317.832031 126.976562 313.25 126.597656 311.863281 126.523438 L 307.3125 120.351562 L 305.824219 120.949219 L 309.5 96.832031 L 308.054688 96.613281 L 304.25 121.578125 L 286.8125 128.523438 L 283.164062 136.296875 C 282.523438 136.238281 281.882812 136.195312 281.285156 136.152344 L 279.34375 127.910156 L 274.542969 124.832031 L 274.542969 122.554688 C 275.242188 122.585938 275.929688 122.613281 276.613281 122.613281 C 280.582031 122.613281 284.273438 122.015625 287.601562 120.832031 C 291.964844 119.289062 304.890625 107.863281 305.445312 107.367188 L 304.480469 106.273438 C 304.351562 106.390625 291.21875 117.988281 287.121094 119.449219 C 282.832031 120.980469 277.914062 121.476562 272.5 120.9375 C 267.234375 120.410156 260.128906 108.753906 258.261719 103.894531 L 256.902344 104.421875 C 258.773438 109.277344 266.125 121.765625 272.355469 122.394531 C 272.601562 122.425781 272.851562 122.425781 273.097656 122.453125 L 273.097656 122.804688 L 269.203125 122.804688 L 260.363281 130.449219 C 256.21875 131.644531 225.667969 140.574219 222.253906 143.695312 C 218.824219 146.832031 216.914062 171.226562 216.621094 175.382812 C 215.234375 176.464844 209.707031 181.453125 214.273438 188.746094 C 213.660156 192.292969 207.445312 228.167969 207.167969 240.378906 C 206.90625 252.316406 207.136719 275.015625 207.167969 278.066406 C 205.664062 279.378906 198.691406 285.871094 201.257812 290.730469 C 202.5 293.0625 202.382812 296.636719 202.265625 300.109375 C 202.164062 303.539062 202.0625 306.777344 203.273438 308.761719 C 203.855469 309.710938 204.980469 310.527344 206.351562 311.210938 C 205.476562 313.984375 202.308594 325.363281 208.203125 327.609375 C 208.742188 327.816406 209.3125 328.003906 209.882812 328.164062 C 209.355469 330.585938 207.984375 338.726562 211.734375 344.097656 C 213.527344 346.664062 216.226562 348.195312 219.757812 348.679688 C 218.78125 360.191406 218.285156 371.21875 218.867188 379.492188 L 218.910156 380.175781 L 262.957031 380.175781 L 281.664062 318.375 C 281.707031 318.375 281.734375 318.375 281.78125 318.375 C 285.382812 318.375 289.425781 318.054688 293.40625 317.078125 L 293.058594 315.664062 C 281.664062 318.433594 269.539062 315.691406 269.421875 315.664062 L 269.085938 317.078125 C 269.394531 317.152344 273.972656 318.1875 280.132812 318.347656 L 261.851562 378.71875 L 220.253906 378.71875 C 218.53125 350.515625 228.613281 291.734375 229.050781 289.167969 C 229.269531 288.613281 230.203125 285.945312 229.125 281.375 C 228.335938 278.035156 236.144531 264.351562 241.585938 255.960938 L 240.359375 255.175781 C 238.945312 257.363281 226.527344 276.707031 227.710938 281.710938 C 228.761719 286.207031 227.695312 288.640625 227.695312 288.65625 L 227.636719 288.847656 C 227.578125 289.183594 224.472656 307.070312 221.917969 327.992188 C 219.992188 328.050781 213.570312 328.105469 208.699219 326.253906 C 204.597656 324.691406 206.378906 315.925781 207.664062 311.824219 C 211.878906 313.574219 217.453125 314.394531 218.328125 314.523438 L 218.53125 313.078125 C 215.207031 312.613281 206.21875 310.804688 204.496094 308.003906 C 203.503906 306.398438 203.605469 303.363281 203.710938 300.167969 C 203.828125 296.519531 203.941406 292.742188 202.527344 290.058594 C 200.644531 286.511719 206.085938 280.851562 208.347656 278.96875 L 208.613281 278.75 L 208.613281 278.402344 C 208.613281 278.152344 208.335938 253.144531 208.613281 240.425781 C 208.890625 227.746094 215.671875 189.128906 215.730469 188.734375 L 215.773438 188.457031 L 215.613281 188.207031 C 210.945312 181.042969 217.410156 176.582031 217.6875 176.390625 L 217.976562 176.1875 L 218.007812 175.835938 C 218.796875 164.53125 220.839844 146.933594 223.203125 144.773438 C 225.828125 142.367188 249.902344 135 260.027344 132.054688 C 260.433594 135.714844 262.652344 149.457031 273.363281 156.972656 L 274.601562 157.847656 L 274.542969 156.316406 C 274.542969 156.273438 274.457031 154.914062 274.457031 152.84375 C 275.957031 153.851562 278.789062 155.292969 282.875 155.292969 C 285.71875 155.292969 289.148438 154.578125 293.128906 152.535156 C 293.1875 153.601562 293.234375 154.695312 293.234375 155.878906 C 293.234375 156.109375 293.234375 156.285156 293.234375 156.386719 L 293.277344 157.597656 L 294.328125 157 C 305.269531 150.699219 315.160156 133.058594 315.585938 132.316406 L 315.816406 131.90625 L 313.003906 128.097656 C 315.03125 128.316406 317.464844 128.859375 318.238281 129.804688 C 318.792969 130.492188 321.039062 131.367188 327.269531 133.703125 C 336.023438 136.96875 349.988281 142.191406 354.320312 146.730469 C 352.65625 148.800781 346.035156 157.292969 343.726562 164.398438 L 318.386719 151.253906 C 315.746094 149.882812 312.492188 150.917969 311.121094 153.558594 L 277.140625 219.109375 C 276.484375 220.394531 276.351562 221.851562 276.789062 223.222656 C 277.226562 224.59375 278.175781 225.71875 279.445312 226.375 L 329.460938 252.300781 C 330.246094 252.707031 331.09375 252.898438 331.941406 252.898438 C 332.054688 252.898438 332.160156 252.882812 332.273438 252.867188 C 333.3125 255.800781 338.476562 272.390625 340.503906 317.019531 C 341.773438 344.972656 340.589844 356.308594 339.453125 367.265625 C 338.5625 375.84375 337.71875 383.957031 338.226562 399.449219 L 339.6875 399.40625 C 339.175781 384.015625 340.023438 375.960938 340.914062 367.425781 C 342.066406 356.410156 343.246094 345.015625 341.976562 316.960938 C 339.964844 272.695312 335.003906 256.167969 333.734375 252.59375 C 334.988281 252.152344 336.082031 251.265625 336.753906 249.996094 L 339.90625 243.910156 C 341.90625 245.675781 347.855469 250.242188 355.851562 250.242188 C 356.886719 250.242188 357.953125 250.171875 359.046875 249.996094 C 370.632812 248.214844 374.222656 234.542969 374.511719 226.753906 C 374.761719 219.457031 369.128906 191.8125 368.488281 188.691406 Z M 211.3125 328.515625 C 214.738281 329.304688 218.269531 329.464844 220.457031 329.464844 C 220.984375 329.464844 221.421875 329.449219 221.773438 329.449219 C 221.070312 335.269531 220.429688 341.296875 219.902344 347.234375 C 216.824219 346.796875 214.492188 345.46875 212.960938 343.265625 C 209.605469 338.453125 210.84375 330.804688 211.3125 328.515625 Z M 273.027344 154.84375 C 263.46875 147.183594 261.71875 133.746094 261.46875 131.394531 L 269.742188 124.246094 L 273.085938 124.246094 L 273.085938 125.632812 L 278.042969 128.828125 L 279.75 136.066406 C 278.597656 136.007812 277.621094 135.964844 276.9375 135.949219 C 277.214844 135.320312 277.519531 134.722656 277.855469 134.183594 L 276.628906 133.394531 C 272.921875 139.289062 272.894531 150.683594 273.027344 154.84375 Z M 274.46875 151.046875 C 274.5 149.503906 274.585938 147.722656 274.746094 145.882812 C 275.300781 148.714844 276.425781 151.355469 277.984375 153.046875 C 276.105469 152.363281 274.921875 151.457031 274.46875 151.046875 Z M 284.375 153.527344 C 282.363281 154.183594 280.597656 153.703125 279.09375 152.113281 C 276.175781 149.007812 274.9375 141.902344 276.441406 137.40625 C 278.585938 137.464844 286.828125 137.773438 290.199219 138.867188 C 290.386719 141.128906 290.824219 151.429688 284.375 153.527344 Z M 287.894531 153.078125 C 290.738281 150.40625 291.554688 145.984375 291.714844 142.644531 C 292.300781 144.921875 292.765625 147.648438 293.027344 150.933594 C 291.175781 151.925781 289.46875 152.609375 287.894531 153.078125 Z M 314.082031 131.996094 C 312.578125 134.589844 303.984375 149.007812 294.675781 155.0625 C 294.503906 145.359375 292.574219 137.902344 289.117188 133.496094 L 287.964844 134.402344 C 288.550781 135.132812 289.148438 136.066406 289.730469 137.230469 C 288.332031 136.898438 286.550781 136.632812 284.710938 136.445312 L 287.894531 129.660156 L 306.800781 122.132812 Z M 355.238281 147.898438 C 355.339844 148.085938 355.445312 148.277344 355.515625 148.464844 C 357.75 154.679688 361.703125 169.488281 363 174.363281 L 345.054688 165.054688 C 347.082031 158.503906 353.3125 150.332031 355.238281 147.898438 Z M 373.023438 226.695312 C 372.746094 234.046875 369.433594 246.917969 358.800781 248.550781 C 349.503906 249.980469 342.269531 244.085938 340.5625 242.554688 L 343.085938 237.679688 L 341.789062 237.011719 L 335.410156 249.292969 C 334.417969 251.21875 332.042969 251.980469 330.117188 250.972656 L 280.101562 225.046875 C 279.167969 224.566406 278.480469 223.75 278.160156 222.742188 C 277.839844 221.734375 277.929688 220.667969 278.425781 219.734375 L 312.402344 154.183594 C 313.394531 152.257812 315.789062 151.515625 317.699219 152.507812 L 367.714844 178.433594 C 369.640625 179.425781 370.398438 181.804688 369.390625 183.730469 L 357.195312 207.246094 L 358.492188 207.917969 L 359.441406 206.09375 C 361.308594 206.75 367.453125 209.566406 369.859375 218.597656 L 371.273438 218.21875 C 368.765625 208.835938 362.433594 205.65625 360.113281 204.796875 L 367.40625 190.730469 C 368.808594 197.691406 373.257812 220.421875 373.023438 226.695312 Z M 293.960938 403.257812 L 292.53125 403.578125 C 295.054688 414.796875 298.761719 499.359375 298.792969 500.21875 L 298.804688 500.6875 L 299.242188 500.863281 C 299.347656 500.90625 305.96875 503.472656 315.832031 503.472656 C 322.03125 503.472656 329.53125 502.453125 337.484375 499.140625 L 336.929688 497.796875 C 318.691406 505.398438 303.023438 500.628906 300.234375 499.664062 C 299.914062 492.035156 296.441406 414.273438 293.960938 403.257812 Z M 278.25 259.667969 C 278.25 259.929688 277.957031 286.511719 278.25 298.097656 L 279.707031 298.054688 C 279.417969 286.496094 279.707031 259.945312 279.707031 259.683594 Z M 232.144531 284.367188 L 233.003906 285.550781 C 247.363281 275.015625 256.347656 258.382812 256.4375 258.207031 L 255.152344 257.523438 C 255.050781 257.683594 246.222656 274.023438 232.144531 284.367188 Z M 330.582031 282.910156 L 331.574219 281.84375 C 320.851562 271.804688 315.21875 256.765625 315.160156 256.617188 L 313.789062 257.128906 C 313.863281 257.273438 319.597656 272.636719 330.582031 282.910156 Z M 339.644531 527.429688 C 340.210938 530.464844 340.53125 534.15625 340.738281 537.480469 C 334.492188 542.894531 321.289062 546.832031 312.460938 547.402344 C 304.6875 547.929688 296.734375 539.261719 295.304688 537.628906 C 296.542969 532.550781 298.644531 526.144531 302.132812 520.835938 L 300.90625 520.03125 C 293.757812 530.902344 292.285156 545.710938 292.226562 546.335938 L 292.210938 546.511719 L 292.269531 546.671875 C 292.3125 546.789062 297.085938 558.183594 313.789062 558.183594 C 315.074219 558.183594 316.429688 558.113281 317.859375 557.964844 C 337.730469 555.953125 342.210938 547.375 342.386719 547.007812 L 342.457031 546.863281 L 342.457031 546.6875 C 342.457031 546.570312 342.472656 534.828125 341.042969 527.136719 Z M 317.730469 556.535156 C 299.796875 558.34375 294.386719 547.796875 293.714844 546.308594 C 293.789062 545.609375 294.121094 542.9375 294.910156 539.363281 C 297.421875 542.078125 304.453125 548.875 311.820312 548.875 C 312.066406 548.875 312.316406 548.875 312.5625 548.847656 C 321.230469 548.292969 334.070312 544.527344 340.839844 539.289062 C 341.015625 542.867188 341.027344 545.753906 341.027344 546.511719 C 340.371094 547.59375 335.355469 554.753906 317.730469 556.535156 Z M 242.925781 501.429688 L 241.496094 501.679688 C 242.957031 510.066406 244.285156 520.441406 244.296875 520.542969 L 244.3125 520.703125 L 244.402344 520.851562 C 247.886719 526.144531 250.003906 532.550781 251.242188 537.628906 C 249.828125 539.246094 241.863281 547.929688 234.085938 547.402344 C 225.273438 546.847656 212.070312 542.910156 205.824219 537.480469 C 206.027344 534.140625 206.351562 530.464844 206.917969 527.414062 C 208.335938 519.785156 211.792969 499.476562 211.835938 499.273438 L 210.390625 499.023438 C 210.363281 499.226562 206.890625 519.523438 205.476562 527.136719 C 204.042969 534.828125 204.058594 546.570312 204.058594 546.6875 L 205.519531 546.6875 C 205.519531 546.628906 205.519531 543.40625 205.722656 539.277344 C 212.492188 544.527344 225.332031 548.292969 233.996094 548.832031 C 234.246094 548.847656 234.492188 548.863281 234.742188 548.863281 C 242.109375 548.863281 249.140625 542.0625 251.652344 539.347656 C 252.554688 543.492188 252.847656 546.410156 252.863281 546.46875 L 254.320312 546.335938 C 254.261719 545.710938 252.804688 531.03125 245.726562 520.164062 C 245.539062 518.808594 244.285156 509.265625 242.925781 501.429688 Z M 233.3125 393.933594 L 231.851562 393.820312 L 230.597656 409.664062 L 232.058594 409.78125 Z M 239.71875 394.199219 L 238.011719 409.882812 L 239.453125 410.042969 L 241.160156 394.359375 Z M 223.15625 477.636719 L 221.992188 494.253906 L 223.449219 494.355469 L 224.617188 477.738281 Z M 231.296875 494.71875 L 232.683594 479.3125 L 231.226562 479.183594 L 229.839844 494.589844 Z M 119.917969 107.617188 L 120.023438 107.292969 L 119.832031 107.015625 C 119.816406 106.988281 117.746094 103.777344 116.082031 100.117188 C 114.566406 96.789062 118.621094 91.320312 118.664062 91.261719 L 117.496094 90.386719 C 117.308594 90.632812 112.886719 96.613281 114.753906 100.714844 C 116.183594 103.867188 117.847656 106.59375 118.417969 107.5 C 118.066406 108.375 116.769531 110.898438 113.472656 112.050781 L 113.953125 113.421875 C 118.621094 111.789062 119.875 107.777344 119.917969 107.617188 Z M 113.617188 109.453125 L 113.792969 108.007812 C 113.660156 107.996094 110.394531 107.617188 108.074219 109.714844 L 109.050781 110.796875 C 110.875 109.148438 113.585938 109.453125 113.617188 109.453125 Z M 113.75 120.878906 L 113.660156 119.417969 C 113.558594 119.417969 104.074219 119.929688 96.941406 115.886719 L 96.226562 117.15625 C 102.179688 120.511719 109.445312 120.890625 112.40625 120.890625 C 113.179688 120.90625 113.660156 120.890625 113.75 120.878906 Z M 58.277344 92.355469 C 58.410156 92.574219 61.429688 97.636719 67.132812 103.53125 L 68.183594 102.507812 C 62.609375 96.746094 59.5625 91.65625 59.53125 91.597656 Z M 40.332031 70.851562 C 42.929688 75.445312 51.40625 77.007812 54.179688 77.402344 C 53.242188 80.261719 53.082031 83.996094 54.789062 88.839844 L 56.160156 88.355469 C 51.699219 75.695312 60.714844 71.332031 61.109375 71.15625 L 62.085938 70.703125 L 61.296875 69.960938 C 59.925781 68.675781 59.488281 66.09375 60.1875 63.554688 C 60.683594 61.773438 62.480469 57.5 68.5625 56.160156 C 77.785156 54.128906 106.890625 63.816406 107.183594 63.90625 L 107.648438 62.519531 C 106.597656 62.167969 84.789062 54.917969 72.839844 54.453125 C 76.515625 51.679688 86.40625 45.347656 98.734375 46.660156 C 102.0625 47.011719 104.949219 48.191406 107.429688 49.828125 L 107.429688 49.898438 C 107.472656 49.898438 107.519531 49.914062 107.546875 49.914062 C 116.492188 55.894531 120.125 67.769531 120.167969 67.933594 L 121.570312 67.523438 C 121.523438 67.378906 118.316406 56.816406 110.40625 50.25 C 120.546875 52.25 130.367188 63.773438 130.875 70.746094 C 131.328125 77.019531 127.945312 80.886719 126.804688 82.011719 L 126.792969 81.792969 C 121.027344 80.710938 119.234375 86.386719 119.234375 86.386719 C 124.179688 85.90625 127.390625 88.605469 127.390625 88.605469 L 126.878906 82.914062 L 127.332031 83.484375 C 127.566406 83.308594 132.90625 78.917969 132.320312 70.632812 C 131.738281 62.417969 119.847656 48.9375 108.015625 48.484375 C 105.402344 46.804688 102.382812 45.582031 98.882812 45.214844 C 83.738281 43.597656 72.109375 53.066406 70.488281 54.464844 C 69.671875 54.507812 68.914062 54.597656 68.257812 54.742188 C 67.089844 55.003906 66.011719 55.386719 65.003906 55.882812 C 63.703125 54.800781 59.226562 51.300781 53.667969 49.8125 C 49.363281 48.660156 45.292969 48.9375 42.519531 50.570312 C 40.785156 51.589844 39.632812 53.125 39.164062 54.992188 C 38.742188 56.726562 39.078125 58.507812 40.128906 60.199219 C 39.484375 61.542969 37.691406 66.167969 40.332031 70.851562 Z M 40.582031 55.339844 C 40.945312 53.839844 41.847656 52.65625 43.265625 51.824219 C 45.671875 50.410156 49.421875 50.175781 53.289062 51.210938 C 58.015625 52.480469 62.042969 55.386719 63.648438 56.652344 C 61.269531 58.214844 59.53125 60.460938 58.789062 63.160156 C 58.421875 64.472656 58.320312 65.789062 58.46875 67 C 52.382812 67.042969 45.175781 64.167969 42.039062 60.359375 C 40.652344 58.695312 40.171875 57.003906 40.582031 55.339844 Z M 41.148438 61.554688 C 44.664062 65.554688 51.945312 68.472656 58.335938 68.472656 C 58.480469 68.472656 58.640625 68.457031 58.789062 68.457031 C 59.007812 69.128906 59.285156 69.753906 59.679688 70.296875 C 58.453125 71.082031 56.148438 72.878906 54.71875 76 C 52.558594 75.707031 43.949219 74.292969 41.601562 70.136719 C 39.675781 66.722656 40.523438 63.234375 41.148438 61.554688 Z M 9.695312 205.261719 C 8.789062 203.46875 6.964844 199.078125 9.472656 197.238281 C 12.347656 195.125 16.273438 190.847656 16.433594 190.671875 L 16.785156 190.292969 L 16.535156 189.84375 C 16.519531 189.8125 15.035156 186.996094 13.925781 183.320312 C 12.742188 179.410156 14.609375 176.097656 19.46875 173.515625 C 22.691406 171.792969 38.597656 164.691406 51.699219 158.898438 C 52.355469 161.832031 55.226562 170.816406 66.535156 176.683594 L 59.632812 186.734375 L 60.832031 187.566406 L 67.847656 177.339844 C 70.007812 178.34375 72.457031 179.234375 75.214844 179.964844 L 68.972656 193.914062 C 56.527344 190.089844 46.78125 180.824219 46.664062 180.710938 L 45.65625 181.757812 C 46.300781 182.386719 61.664062 197.003906 79.125 197.003906 C 79.242188 197.003906 79.359375 197.003906 79.460938 197.003906 L 79.449219 195.546875 C 79.34375 195.546875 79.242188 195.546875 79.125 195.546875 C 76.136719 195.546875 73.203125 195.078125 70.386719 194.320312 L 76.660156 180.328125 C 81.050781 181.351562 86.203125 181.976562 92.242188 181.976562 C 92.492188 181.964844 117.074219 180.519531 118.007812 161.027344 C 132.144531 168 146.238281 175.53125 146.882812 177.644531 L 148.28125 177.222656 C 147.363281 174.214844 130.265625 165.359375 116.957031 158.867188 C 117.164062 157.03125 117.761719 150.945312 117.191406 146.511719 C 116.621094 142.148438 117.046875 135.410156 117.164062 133.703125 C 119.074219 132.710938 120.5625 131.015625 121.21875 128.886719 L 121.453125 128.15625 C 123.128906 122.789062 125.667969 114.675781 127.171875 105.515625 L 125.726562 105.28125 C 124.222656 114.339844 121.714844 122.394531 120.050781 127.734375 L 119.816406 128.464844 C 119.015625 131.0625 116.722656 132.914062 113.996094 133.160156 C 110.539062 133.496094 105.300781 133.628906 99.960938 132.386719 C 95.25 131.308594 91.046875 129.03125 88.171875 127.195312 C 87.632812 118.980469 86.859375 111.015625 86.378906 106.011719 C 86.246094 104.640625 86.128906 103.472656 86.058594 102.582031 C 85.296875 94.308594 83.605469 69.726562 83.589844 69.476562 L 82.132812 69.582031 C 82.148438 69.828125 83.855469 94.425781 84.613281 102.714844 C 84.699219 103.601562 84.800781 104.769531 84.933594 106.140625 C 86.011719 117.40625 88.566406 143.796875 86.714844 153.894531 C 85.910156 158.242188 86.011719 162.109375 86.085938 165.214844 C 86.230469 170.804688 86.144531 173.09375 82.773438 173.472656 C 80.132812 173.777344 78.164062 173.894531 76.792969 172.699219 C 74.691406 170.859375 73.714844 165.667969 73.507812 155.351562 C 73.378906 148.757812 73 139.652344 72.605469 130.011719 C 71.875 112.136719 71.042969 91.886719 71.789062 86.183594 L 70.34375 85.992188 C 69.597656 91.683594 70.34375 110.445312 71.101562 128.886719 L 68.855469 149.722656 C 64.199219 151.777344 24.238281 169.316406 18.78125 172.21875 C 11.867188 175.910156 11.5625 180.519531 12.523438 183.730469 C 13.414062 186.707031 14.523438 189.082031 15.003906 190.0625 C 13.984375 191.15625 10.890625 194.394531 8.597656 196.070312 C 5.199219 198.566406 7.316406 203.804688 8.378906 205.933594 Z M 109.253906 134.839844 C 111.09375 134.839844 112.757812 134.738281 114.140625 134.605469 C 114.667969 134.5625 115.164062 134.445312 115.644531 134.300781 C 115.484375 136.734375 115.191406 142.617188 115.734375 146.699219 C 116.242188 150.582031 115.777344 155.964844 115.558594 158.183594 C 110.128906 155.542969 105.476562 153.367188 103.070312 152.246094 L 104.964844 134.636719 C 106.46875 134.765625 107.914062 134.839844 109.253906 134.839844 Z M 99.65625 133.804688 C 100.96875 134.109375 102.25 134.3125 103.519531 134.476562 L 103.097656 138.355469 C 102.046875 138.792969 98.050781 140.078125 88.769531 139.273438 C 88.683594 135.976562 88.523438 132.476562 88.304688 128.988281 C 91.234375 130.769531 95.21875 132.78125 99.65625 133.804688 Z M 69.847656 150.886719 L 70.242188 150.714844 L 71.523438 138.792969 C 71.773438 145.082031 71.976562 150.828125 72.066406 155.367188 C 72.285156 166.425781 73.347656 171.589844 75.859375 173.777344 C 77.039062 174.816406 78.441406 175.121094 80.089844 175.121094 C 80.980469 175.121094 81.941406 175.035156 82.976562 174.917969 C 87.808594 174.363281 87.707031 170.308594 87.589844 165.171875 C 87.515625 162.136719 87.414062 158.34375 88.1875 154.15625 C 88.769531 150.945312 88.929688 146.148438 88.828125 140.734375 C 90.929688 140.910156 92.796875 140.996094 94.402344 140.996094 C 98.910156 140.996094 101.566406 140.425781 102.9375 139.976562 L 101.523438 153.136719 L 102.003906 153.355469 C 106.394531 155.382812 111.472656 157.804688 116.59375 160.3125 C 116.230469 179.089844 93.175781 180.460938 92.214844 180.503906 C 58.496094 180.503906 53.667969 161.726562 53.054688 158.285156 C 62.203125 154.242188 69.671875 150.960938 69.847656 150.886719 Z M 23.539062 285.535156 C 30.265625 275.25 43.484375 262.003906 43.613281 261.871094 L 42.578125 260.835938 C 42.449219 260.964844 29.128906 274.332031 22.3125 284.734375 Z M 19.601562 178.023438 L 18.636719 179.117188 C 18.769531 179.234375 32.484375 191.332031 37.574219 205.089844 L 38.945312 204.578125 C 33.738281 190.484375 19.746094 178.140625 19.601562 178.023438 Z M 165.628906 237.023438 L 147.539062 237.023438 L 147.347656 209.609375 C 151.257812 203.324219 145.960938 199.3125 145.90625 199.265625 L 145.042969 200.433594 C 145.21875 200.566406 149.375 203.761719 146.007812 209 L 145.890625 209.1875 L 146.078125 237.023438 L 128.121094 237.023438 C 131.738281 220.160156 132.875 203.90625 132.890625 203.746094 L 131.429688 203.644531 C 131.417969 203.804688 130.277344 220.160156 126.617188 237.023438 L 101.375 237.023438 C 99.480469 237.023438 97.816406 238.234375 97.21875 240.015625 C 94.125 249.339844 92.769531 253.4375 92.257812 255.289062 C 91.964844 255.117188 91.746094 255 91.601562 254.910156 C 89.5 253.671875 76.003906 258.71875 69.671875 261.199219 C 68.914062 260.0625 66.796875 257.769531 61.910156 257.960938 C 57.082031 258.121094 50.105469 258.152344 47.832031 258.152344 C 47.789062 257.597656 47.582031 256.851562 46.96875 256.179688 C 45.847656 254.957031 43.789062 254.472656 40.871094 254.722656 C 41.410156 249.628906 43.921875 225.292969 43.058594 215.605469 L 41.601562 215.738281 C 42.535156 226.199219 39.355469 255.175781 39.324219 255.464844 L 39.222656 256.386719 L 40.140625 256.269531 C 43.761719 255.800781 45.261719 256.488281 45.890625 257.144531 C 46.546875 257.84375 46.386719 258.691406 46.386719 258.71875 L 46.195312 259.609375 L 47.101562 259.609375 C 47.1875 259.609375 56.117188 259.609375 61.96875 259.417969 C 66.316406 259.289062 68.007812 261.289062 68.519531 262.089844 C 62.828125 271.339844 63.589844 290.875 63.835938 295.078125 C 57.503906 295.136719 14.171875 295.382812 7.78125 292.480469 L 7.183594 293.808594 C 12.539062 296.242188 40.929688 296.566406 55.722656 296.566406 C 60.683594 296.566406 64.113281 296.519531 64.640625 296.519531 L 65.410156 296.507812 L 65.355469 295.734375 C 65.355469 295.660156 65.191406 293.355469 65.164062 289.925781 C 69.03125 291.019531 77.097656 292.261719 77.550781 292.332031 C 77.625 292.332031 77.960938 292.332031 78.46875 292.347656 L 76.996094 297.132812 C 76.585938 298.476562 76.820312 299.90625 77.652344 301.027344 C 78.484375 302.152344 79.769531 302.808594 81.183594 302.808594 L 139.308594 302.808594 C 138.375 306.296875 134.976562 318.84375 133.285156 324.417969 C 131.589844 330.003906 130.277344 334.132812 129.914062 335.242188 C 128.820312 335.753906 124.296875 337.648438 118.210938 337.109375 L 118.082031 338.566406 C 118.882812 338.640625 119.671875 338.671875 120.414062 338.671875 C 122.734375 338.671875 124.75 338.363281 126.382812 337.96875 C 126.019531 341.019531 124.3125 350.429688 116.636719 355.417969 L 117.441406 356.644531 C 126.28125 350.882812 127.695312 340.054688 127.902344 337.5625 C 129.695312 337.007812 130.761719 336.453125 130.847656 336.394531 L 131.109375 336.25 L 131.199219 335.972656 C 131.199219 335.972656 132.65625 331.40625 134.65625 324.824219 C 136.433594 319.003906 140.039062 305.625 140.796875 302.792969 L 145.464844 302.792969 C 147.320312 302.792969 148.984375 301.613281 149.59375 299.875 L 169.746094 242.875 C 170.226562 241.519531 170.019531 240.058594 169.191406 238.878906 C 168.371094 237.710938 167.074219 237.023438 165.628906 237.023438 Z M 77.652344 290.890625 C 77.566406 290.875 68.664062 289.503906 65.136719 288.410156 C 65.164062 280.71875 65.90625 268.933594 69.847656 262.703125 C 79.171875 259.039062 89.527344 255.613281 90.871094 256.179688 C 91.121094 256.328125 91.585938 256.589844 92.242188 256.984375 C 92.257812 256.984375 92.257812 256.996094 92.273438 256.996094 C 94.152344 258.09375 97.683594 260.121094 102.734375 263.007812 C 101.683594 264.148438 100.71875 265.839844 101.683594 267.285156 C 102.382812 268.332031 103.871094 269.019531 105.476562 269.019531 C 105.476562 269.019531 105.492188 269.019531 105.492188 269.019531 C 106.992188 269.019531 108.335938 268.421875 109.355469 267.398438 C 109.429688 267.546875 109.488281 267.707031 109.515625 267.867188 C 109.664062 268.480469 109.546875 269.09375 109.210938 269.589844 C 108.570312 270.535156 107.210938 270.902344 105.214844 270.683594 C 98.792969 269.984375 88.304688 263.652344 88.203125 263.59375 L 87.441406 264.832031 C 87.734375 265.007812 92.5625 267.925781 97.757812 270.027344 C 98.019531 270.988281 98.589844 273.890625 96.488281 275.03125 L 84.40625 271.691406 L 84.015625 273.089844 L 96.035156 276.417969 C 96.402344 277.421875 97.289062 280.707031 94.257812 282.691406 L 84.203125 282.691406 L 84.203125 284.148438 L 93.890625 284.148438 C 94.140625 285.417969 94.578125 288.640625 92.621094 289.621094 C 90.273438 290.816406 80.949219 290.933594 77.652344 290.890625 Z M 104.03125 263.753906 C 105.359375 264.511719 106.757812 265.3125 108.277344 266.1875 C 108.335938 266.21875 108.378906 266.261719 108.4375 266.304688 C 107.445312 267.386719 106.207031 267.5625 105.503906 267.5625 C 105.503906 267.5625 105.492188 267.5625 105.492188 267.5625 C 104.367188 267.5625 103.332031 267.121094 102.894531 266.464844 C 102.367188 265.679688 103.34375 264.4375 104.03125 263.753906 Z M 168.386719 242.394531 L 148.238281 299.394531 C 147.832031 300.5625 146.722656 301.351562 145.480469 301.351562 L 81.167969 301.351562 C 80.234375 301.351562 79.375 300.914062 78.820312 300.152344 C 78.265625 299.394531 78.105469 298.445312 78.382812 297.558594 L 79.988281 292.347656 C 83.808594 292.320312 90.957031 292.101562 93.292969 290.933594 C 96.253906 289.460938 95.640625 285.242188 95.320312 283.753906 C 98.371094 281.597656 98.179688 278.167969 97.496094 276.152344 C 99.449219 274.898438 99.65625 272.492188 99.378906 270.667969 C 101.363281 271.398438 103.332031 271.953125 105.066406 272.140625 C 105.492188 272.183594 105.898438 272.214844 106.277344 272.214844 C 108.234375 272.214844 109.621094 271.617188 110.4375 270.421875 C 111.003906 269.589844 111.179688 268.566406 110.945312 267.5625 C 110.699219 266.464844 109.984375 265.503906 109.007812 264.949219 C 101.449219 260.617188 96.195312 257.597656 93.496094 256.050781 C 94.007812 254.402344 95.859375 248.8125 98.605469 240.527344 C 98.996094 239.328125 100.121094 238.527344 101.375 238.527344 L 165.613281 238.527344 C 166.578125 238.527344 167.453125 238.980469 168.007812 239.769531 C 168.5625 240.554688 168.707031 241.488281 168.386719 242.394531 Z M 168.386719 242.394531 " fill-opacity="1" fill-rule="nonzero"/><path fill="rgb(100%, 100%, 100%)" d="M 311.71875 45.1875 C 304.132812 45.726562 298.136719 52.304688 298.078125 52.363281 L 296.996094 51.386719 C 297.113281 51.257812 298.382812 49.871094 300.46875 48.292969 C 297.785156 45.683594 285.367188 35.367188 263.921875 43.421875 L 263.410156 42.050781 C 286.082031 33.53125 299.140625 44.910156 301.679688 47.433594 C 302.292969 47.011719 302.964844 46.601562 303.679688 46.207031 C 302.847656 43.625 298.339844 32.902344 281.269531 32.902344 L 281.269531 31.445312 C 298.601562 31.445312 303.824219 42.371094 304.976562 45.550781 C 306.945312 44.617188 309.195312 43.886719 311.628906 43.714844 Z M 103.097656 315.707031 L 81.242188 326.984375 L 81.914062 328.28125 L 91.46875 323.351562 L 64.40625 451.039062 L 65.835938 451.34375 L 93.148438 322.488281 L 103.769531 317.003906 Z M 42.375 421.304688 C 39.371094 446.136719 31.140625 508.960938 31.054688 509.601562 L 32.496094 509.789062 C 32.585938 509.164062 40.8125 446.328125 43.820312 421.480469 C 46.824219 396.664062 61.75 296.929688 61.894531 295.921875 L 60.453125 295.703125 C 60.304688 296.726562 45.394531 396.460938 42.375 421.304688 Z M 42.375 421.304688 " fill-opacity="1" fill-rule="nonzero"/></svg>